<svg id="图层_1" data-name="图层 1" xmlns="http://www.w3.org/2000/svg" xmlns:xlink="http://www.w3.org/1999/xlink" viewBox="0 0 1064 1064"><defs><style>.cls-1{fill:url(#未命名的渐变_11);}.cls-2{fill:#171c61;}.cls-3{fill:#fff;}</style><linearGradient id="未命名的渐变_11" x1="155.82" y1="908.18" x2="908.18" y2="155.82" gradientUnits="userSpaceOnUse"><stop offset="0" stop-color="#2ea7e0"/><stop offset="0.28" stop-color="#2ea4de"/><stop offset="0.45" stop-color="#2c9cd8"/><stop offset="0.59" stop-color="#298dce"/><stop offset="0.72" stop-color="#2579bf"/><stop offset="0.84" stop-color="#215ead"/><stop offset="0.94" stop-color="#1b3e96"/><stop offset="1" stop-color="#172a88"/></linearGradient></defs><title>云下载</title><circle class="cls-1" cx="532" cy="532" r="532"/><path class="cls-2" d="M1264.81,956.52c.2-4.17.6-8.35.6-12.53,0-115.3-93.44-208.84-208.85-208.84-83.2,0-154.77,48.71-188.37,119.09A96.2,96.2,0,0,0,713,930.38a94.2,94.2,0,0,0,4.38,28.73c-41.46,24.55-67.4,69.68-67.4,121.47,0,77.33,63,140.16,141.15,141.35l67.5-4.17-44.73-51.3c-19.19-22.86-23.66-51-12.13-75.64s36.18-39.07,66-39.07h29.92V974.81c0-46.12,38.57-87.57,84.7-87.57h29.22c46.22,0,81.41,41.35,81.41,87.57v76.84h33.3c29.82,0,54.58,15.51,66,40.16s7,51.29-12.13,74.26l-44.73,51.59s73.66,2.48,76.24,2.48c76.34,0,138.27-60.83,138.27-137.18,0-57.45-35.19-105.66-85.19-126.44Zm-138.47,154.57h-91.95V974.81c0-13.92-8.94-29.82-22.76-29.82H982.41c-13.92,0-26.15,15.9-26.15,29.82v136.28H867.69c-13.91,0-18,9.05-9,19.69l122.07,146c4.47,5.37,10.33,8,16.2,8a20.94,20.94,0,0,0,16.2-7.95l122.07-146.12c9.14-10.74,5.07-19.69-8.85-19.69Zm0,0" transform="translate(-468 -468)"/><path class="cls-3" d="M1264.81,946.52c.2-4.17.6-8.35.6-12.53,0-115.3-93.44-208.84-208.85-208.84-83.2,0-154.77,48.71-188.37,119.09A96.2,96.2,0,0,0,713,920.38a94.2,94.2,0,0,0,4.38,28.73c-41.46,24.55-67.4,69.68-67.4,121.47,0,77.33,63,140.16,141.15,141.35l67.5-4.17-44.73-51.3c-19.19-22.86-23.66-51-12.13-75.64s36.18-39.07,66-39.07h29.92V964.81c0-46.12,38.57-87.57,84.7-87.57h29.22c46.22,0,81.41,41.35,81.41,87.57v76.84h33.3c29.82,0,54.58,15.51,66,40.16s7,51.29-12.13,74.26l-44.73,51.59s73.66,2.48,76.24,2.48c76.34,0,138.27-60.83,138.27-137.18,0-57.45-35.19-105.66-85.19-126.44Zm-138.47,154.57h-91.95V964.81c0-13.92-8.94-29.82-22.76-29.82H982.41c-13.92,0-26.15,15.9-26.15,29.82v136.28H867.69c-13.91,0-18,9.05-9,19.69l122.07,146c4.47,5.37,10.33,8,16.2,8a20.94,20.94,0,0,0,16.2-7.95l122.07-146.12c9.14-10.74,5.07-19.69-8.85-19.69Zm0,0" transform="translate(-468 -468)"/></svg>