<svg id="图层_1" data-name="图层 1" xmlns="http://www.w3.org/2000/svg" viewBox="0 0 41.28 48.45"><defs><style>.cls-1{fill:#fff;}</style></defs><title>未标题-3 [已恢复]</title><path class="cls-1" d="M-136.29,285.42h-5.92v7a42.31,42.31,0,0,0,5.67,0,4.27,4.27,0,0,0,3-4C-133.52,285.87-136.29,285.42-136.29,285.42Z" transform="translate(156.82 -253.12)"/><path class="cls-1" d="M-135.52,273.51c-.24-1.55-1.22-3.39-2.77-3.59a22.29,22.29,0,0,0-3.92,0v6.77h5.34S-135.27,275.06-135.52,273.51Z" transform="translate(156.82 -253.12)"/><path class="cls-1" d="M-153,253.12l-3.77,39.67,8.06,2.19V262.19l15-.13s6.61,1.59,7.1,8.45-3.55,8.56-3.55,8.56l0,.65a10.54,10.54,0,0,1,4.75,9.94c-.68,6.79-3.37,8.81-4.59,9.67V300l-.08,0v0l5.76,1.56,8.87-35.38Z" transform="translate(156.82 -253.12)"/></svg>