<svg id="图层_1" data-name="图层 1" xmlns="http://www.w3.org/2000/svg" viewBox="0 0 206.32 49.49"><defs><style>.cls-1{fill:#fff;}.cls-2{fill:none;stroke:#040000;stroke-miterlimit:10;stroke-width:0.75px;}</style></defs><title>未标题-3 [已恢复]</title><path class="cls-1" d="M-136.29,285.42h-5.92v7a42.31,42.31,0,0,0,5.67,0,4.27,4.27,0,0,0,3-4C-133.52,285.87-136.29,285.42-136.29,285.42Z" transform="translate(156.82 -253.12)"/><path class="cls-1" d="M-135.52,273.51c-.24-1.55-1.22-3.39-2.77-3.59a22.29,22.29,0,0,0-3.92,0v6.77h5.34S-135.27,275.06-135.52,273.51Z" transform="translate(156.82 -253.12)"/><path class="cls-1" d="M-153,253.12l-3.77,39.67,8.06,2.19V262.19l15-.13s6.61,1.59,7.1,8.45-3.55,8.56-3.55,8.56l0,.65a10.54,10.54,0,0,1,4.75,9.94c-.68,6.79-3.37,8.81-4.59,9.67V300l-.08,0v0l5.76,1.56,8.87-35.38Z" transform="translate(156.82 -253.12)"/><path class="cls-1" d="M-86.4,282.86c0,1.86-.95,2.8-2.85,2.8H-101.7V255.09h12.37c1.85,0,2.77.94,2.77,2.81v7.87a3,3,0,0,1-1,2.42c-.09.08-.9.58-2.43,1.51,1.58.95,2.42,1.47,2.51,1.56a3.13,3.13,0,0,1,1.08,2.52Zm-4.8-16.52v-7.4H-97v9h3.59Zm.12,15.47V273.1l-2.29-1.49H-97v10.2Z" transform="translate(156.82 -253.12)"/><path class="cls-1" d="M-76.7,263.1h-4.56v-4.61h4.56Zm0,22.56h-4.48V265.93h4.48Z" transform="translate(156.82 -253.12)"/><path class="cls-1" d="M-58.45,283.21A2.21,2.21,0,0,1-61,285.66h-8.17c-1.71,0-2.57-.82-2.57-2.45V268.37c0-1.63.86-2.44,2.57-2.44H-61c1.68,0,2.53.81,2.53,2.44Zm-4.47-1.27V269.66h-4.32v12.28Z" transform="translate(156.82 -253.12)"/><path class="cls-1" d="M-34.45,285.66h-4.48V270.58a26.44,26.44,0,0,1,.28-3.32l-4,15.6H-45l-4-15.6a27.18,27.18,0,0,1,.28,3.32v15.08h-4.48V255.09h4.4L-44,272a8.83,8.83,0,0,1,.12,1.39,11.25,11.25,0,0,1,.12-1.39l4.9-16.89h4.4Z" transform="translate(156.82 -253.12)"/><path class="cls-1" d="M-16.36,285.66h-4.36V285l-3.11.47a22.76,22.76,0,0,1-3.09.29q-2.49,0-2.49-2.4v-7.11c0-1.63.86-2.44,2.57-2.44h6.16v-4.53H-25v2.81h-4.12v-3.69c0-1.63.86-2.44,2.57-2.44h7.71c1.68,0,2.53.81,2.53,2.44Zm-4.32-3.56v-5.29H-25v5.45Z" transform="translate(156.82 -253.12)"/><path class="cls-1" d="M1.19,283.21a2.2,2.2,0,0,1-2.53,2.45H-9a2.2,2.2,0,0,1-2.53-2.45V279h4.36v3.32h4v-3.13l-7-4A2.43,2.43,0,0,1-11.54,273v-4.61c0-1.63.85-2.44,2.57-2.44h7.59c1.69,0,2.53.81,2.53,2.44v4H-3.17v-3h-4v2.85l7,4a2.42,2.42,0,0,1,1.4,2.19Z" transform="translate(156.82 -253.12)"/><path class="cls-1" d="M14.69,285.66H9.63a2.21,2.21,0,0,1-2.53-2.45V269.74H5v-3.81H7.1v-5.35h4.55v5.35h2.92v3.81H11.65v12.11h3Z" transform="translate(156.82 -253.12)"/><path class="cls-1" d="M31.86,283.21c0,1.63-.85,2.45-2.57,2.45H21.43c-1.72,0-2.57-.82-2.57-2.45V268.37c0-1.63.85-2.44,2.57-2.44h7.86c1.72,0,2.57.81,2.57,2.44v7.25l-1.25,1.23H23.22v5.52H27.5v-3.28h4.36Zm-4.36-9.27v-4.73H23.22v4.73Z" transform="translate(156.82 -253.12)"/><path class="cls-1" d="M49.49,274.17H45v-4.51l-3.6.08v15.92H36.8V265.93h4.57v.72l2.81-.51a17.57,17.57,0,0,1,2.82-.29q2.49,0,2.49,2.4Z" transform="translate(156.82 -253.12)"/><path d="M-55.15,293l-2.18,9.65h-1.06L-60.57,293h1.11l1.57,7.66,0,.63q0-.21.06-.63l1.56-7.66Z" transform="translate(156.82 -253.12)"/><path d="M-48.39,301.89c0,.46-.3.7-.9.7h-2.58c-.6,0-.9-.24-.9-.7v-4.6q0-.69.9-.69h2.58q.9,0,.9.69v2.16l-.36.29h-3v2.16h2.3v-1.09h1Zm-1-2.81v-1.8h-2.3v1.8Z" transform="translate(156.82 -253.12)"/><path d="M-41.52,298.57h-1.06v-1.24l-2,.05v5.21h-1.08v-6h1.08v.17l1.07-.13a9.64,9.64,0,0,1,1.07-.08c.59,0,.89.23.89.67Z" transform="translate(156.82 -253.12)"/><path d="M-34.95,301.89c0,.46-.3.7-.91.7h-2.46c-.61,0-.91-.24-.91-.7v-1.36h1.06v1.35H-36v-1.2l-2.8-1.75a.72.72,0,0,1-.4-.64v-1c0-.46.3-.69.91-.69h2.42c.61,0,.91.23.91.69v1.2h-1v-1.18h-2.16v1l2.82,1.76a.72.72,0,0,1,.4.65Z" transform="translate(156.82 -253.12)"/><path d="M-31.13,295.29h-1.08v-1h1.08Zm0,7.3H-32.2v-6h1.06Z" transform="translate(156.82 -253.12)"/><path d="M-23.83,301.89c0,.46-.3.7-.91.7h-2.69c-.6,0-.9-.24-.9-.7v-4.6q0-.69.9-.69h2.69c.61,0,.91.23.91.69Zm-1.07,0v-4.55h-2.36v4.55Z" transform="translate(156.82 -253.12)"/><path d="M-16.59,302.59h-1.07v-5.26l-2.36.05v5.21h-1.07v-6H-20v.17l1.27-.13c.51-.05.94-.08,1.27-.08.6,0,.89.23.89.67Z" transform="translate(156.82 -253.12)"/><path d="M-4.82,302.59h-5v-.46L-6,296v-2.3H-8.54v2.17H-9.67v-2.24a.61.61,0,0,1,.25-.49,1,1,0,0,1,.65-.19h3a1,1,0,0,1,.64.19.58.58,0,0,1,.25.49v2a1.65,1.65,0,0,1-.3.85l-3.33,5.3h3.65Z" transform="translate(156.82 -253.12)"/><path d="M-1.11,302.59H-2.34V301.5h1.23Z" transform="translate(156.82 -253.12)"/><path d="M6.79,301.9a.59.59,0,0,1-.26.5,1.11,1.11,0,0,1-.65.19H2.54a1.09,1.09,0,0,1-.65-.19.63.63,0,0,1-.25-.5v-8.26a.61.61,0,0,1,.25-.49,1,1,0,0,1,.65-.19H5.88a1,1,0,0,1,.65.19.57.57,0,0,1,.26.49Zm-1.12-.07v-8.12H2.76v8.12Z" transform="translate(156.82 -253.12)"/><line class="cls-2" x1="51.72" y1="43.73" x2="91.77" y2="43.73"/><line class="cls-2" x1="165.76" y1="43.73" x2="205.81" y2="43.73"/></svg>