<svg id="图层_1" data-name="图层 1" xmlns="http://www.w3.org/2000/svg" viewBox="0 0 269.34 68.51"><defs><style>.cls-1,.cls-2{fill:#fff;}.cls-2{font-size:40px;font-family:AgencyFB-Bold, Agency FB;font-weight:700;letter-spacing:0.04em;}.cls-3{fill:none;stroke:#231815;stroke-miterlimit:10;}.cls-4{font-size:14px;fill:#231815;font-family:AgencyFB-Reg, Agency FB;letter-spacing:0.08em;}</style></defs><title>logo22</title><path class="cls-1" d="M83.79,755.71l-3.73,38.12,8.09,1.95V765.06l14-.12s6.19,1.49,6.65,7.91-3.32,8-3.32,8l0,.6a9.87,9.87,0,0,1,4.44,9.32c-.63,6.36-3.15,8.25-4.3,9.05v.63h6.48l8.14-31.7Z" transform="translate(-80.06 -755.71)"/><path class="cls-1" d="M94.28,772.3v6.34h5s1.49-1.53,1.26-3-1.15-3.17-2.6-3.36A21.6,21.6,0,0,0,94.28,772.3Z" transform="translate(-80.06 -755.71)"/><path class="cls-1" d="M94.28,786.82v6.54a40.33,40.33,0,0,0,5.31,0,4,4,0,0,0,2.79-3.75c0-2.37-2.56-2.79-2.56-2.79Z" transform="translate(-80.06 -755.71)"/><text class="cls-2" transform="translate(51.94 47.46)">BioMaster</text><line class="cls-3" x1="51.59" y1="59.56" x2="91.03" y2="59.56"/><line class="cls-3" x1="165.5" y1="59.56" x2="204.94" y2="59.56"/><text class="cls-4" transform="translate(94.7 65.71) scale(1.13 1)">Version 2.0</text></svg>